<?xml version="1.0" encoding="UTF-8" standalone="no"?>
<!-- Created with Inkscape (http://www.inkscape.org/) -->

<svg
   xmlns:svg="http://www.w3.org/2000/svg"
   xmlns="http://www.w3.org/2000/svg"
   version="1.1"
   width="968.75"
   height="720"
   id="svg2"
   xml:space="preserve"><defs
     id="defs6"><clipPath
       id="clipPath18"><path
         d="m 0,0 3228.72,0 0,2400.6 L 0,2400.6 0,0 z"
         id="path20" /></clipPath><clipPath
       id="clipPath210"><path
         d="m 603.13,2296.58 2469.54,0 0,-1765.44 -2469.54,0 0,1765.44 z"
         id="path212" /></clipPath></defs><g
     transform="matrix(1.25,0,0,-1.25,0,720)"
     id="g12"><g
       transform="scale(0.239943,0.23994)"
       id="g14"><g
         clip-path="url(#clipPath18)"
         id="g16"><g
           id="g22"><g
             id="g24" /><g
             id="g26"><g
               id="g28" /><g
               id="g30"><g
                 id="g32" /><g
                 transform="matrix(1.000219,0,0,-1.000246,0,2400.6047)"
                 id="g34"><g
                   transform="matrix(1,0,0,-1,549,2077)"
                   id="g36"><text
                     transform="scale(1,-1)"
                     id="text38"><tspan
                       x="0"
                       y="0"
                       id="tspan40"
                       style="font-size:193px;font-variant:normal;font-weight:normal;writing-mode:lr-tb;fill:#000000;fill-opacity:1;fill-rule:nonzero;stroke:none;font-family:Arial;-inkscape-font-specification:ArialMT">0</tspan></text>
</g></g></g><g
               id="g42" /><g
               id="g44"><g
                 id="g46" /><g
                 transform="matrix(1.000219,0,0,-1.000246,0,2400.6047)"
                 id="g48"><g
                   transform="matrix(1,0,0,-1,1371,2077)"
                   id="g50"><text
                     transform="scale(1,-1)"
                     id="text52"><tspan
                       x="0"
                       y="0"
                       id="tspan54"
                       style="font-size:193px;font-variant:normal;font-weight:normal;writing-mode:lr-tb;fill:#000000;fill-opacity:1;fill-rule:nonzero;stroke:none;font-family:Arial;-inkscape-font-specification:ArialMT">1</tspan></text>
</g></g></g><g
               id="g56" /><g
               id="g58"><g
                 id="g60" /><g
                 transform="matrix(1.000219,0,0,-1.000246,0,2400.6047)"
                 id="g62"><g
                   transform="matrix(1,0,0,-1,2194,2077)"
                   id="g64"><text
                     transform="scale(1,-1)"
                     id="text66"><tspan
                       x="0"
                       y="0"
                       id="tspan68"
                       style="font-size:193px;font-variant:normal;font-weight:normal;writing-mode:lr-tb;fill:#000000;fill-opacity:1;fill-rule:nonzero;stroke:none;font-family:Arial;-inkscape-font-specification:ArialMT">2</tspan></text>
</g></g></g><g
               id="g70" /><g
               id="g72"><g
                 id="g74" /><g
                 transform="matrix(1.000219,0,0,-1.000246,0,2400.6047)"
                 id="g76"><g
                   transform="matrix(1,0,0,-1,3017,2077)"
                   id="g78"><text
                     transform="scale(1,-1)"
                     id="text80"><tspan
                       x="0"
                       y="0"
                       id="tspan82"
                       style="font-size:193px;font-variant:normal;font-weight:normal;writing-mode:lr-tb;fill:#000000;fill-opacity:1;fill-rule:nonzero;stroke:none;font-family:Arial;-inkscape-font-specification:ArialMT">3</tspan></text>
</g></g></g><g
               id="g84" /><g
               id="g86"><g
                 id="g88" /><g
                 transform="matrix(1.000219,0,0,-1.000246,0,2400.6047)"
                 id="g90"><g
                   transform="matrix(1,0,0,-1,439,1924)"
                   id="g92"><text
                     transform="scale(1,-1)"
                     id="text94"><tspan
                       x="0"
                       y="0"
                       id="tspan96"
                       style="font-size:193px;font-variant:normal;font-weight:normal;writing-mode:lr-tb;fill:#000000;fill-opacity:1;fill-rule:nonzero;stroke:none;font-family:Arial;-inkscape-font-specification:ArialMT">0</tspan></text>
</g></g></g><g
               id="g98" /><g
               id="g100"><g
                 id="g102" /><g
                 transform="matrix(1.000219,0,0,-1.000246,0,2400.6047)"
                 id="g104"><g
                   transform="matrix(1,0,0,-1,332,1420)"
                   id="g106"><text
                     transform="scale(1,-1)"
                     id="text108"><tspan
                       x="0 107"
                       y="0"
                       id="tspan110"
                       style="font-size:193px;font-variant:normal;font-weight:normal;writing-mode:lr-tb;fill:#000000;fill-opacity:1;fill-rule:nonzero;stroke:none;font-family:Arial;-inkscape-font-specification:ArialMT">10</tspan></text>
</g></g></g><g
               id="g112" /><g
               id="g114"><g
                 id="g116" /><g
                 transform="matrix(1.000219,0,0,-1.000246,0,2400.6047)"
                 id="g118"><g
                   transform="matrix(1,0,0,-1,332,916)"
                   id="g120"><text
                     transform="scale(1,-1)"
                     id="text122"><tspan
                       x="0 107"
                       y="0"
                       id="tspan124"
                       style="font-size:193px;font-variant:normal;font-weight:normal;writing-mode:lr-tb;fill:#000000;fill-opacity:1;fill-rule:nonzero;stroke:none;font-family:Arial;-inkscape-font-specification:ArialMT">20</tspan></text>
</g></g></g><g
               id="g126" /><g
               id="g128"><g
                 id="g130" /><g
                 transform="matrix(1.000219,0,0,-1.000246,0,2400.6047)"
                 id="g132"><g
                   transform="matrix(1,0,0,-1,332,412)"
                   id="g134"><text
                     transform="scale(1,-1)"
                     id="text136"><tspan
                       x="0 107"
                       y="0"
                       id="tspan138"
                       style="font-size:193px;font-variant:normal;font-weight:normal;writing-mode:lr-tb;fill:#000000;fill-opacity:1;fill-rule:nonzero;stroke:none;font-family:Arial;-inkscape-font-specification:ArialMT">30</tspan></text>
</g></g></g><g
               id="g140" /><g
               transform="matrix(1.000219,0,0,-1.000246,0,2400.6047)"
               id="g142"><path
                 d="m 602.99,1902.01 0,-33.99"
                 id="path144"
                 style="fill:none;stroke:#000000;stroke-width:7;stroke-linecap:round;stroke-linejoin:round;stroke-miterlimit:10;stroke-opacity:1;stroke-dasharray:none" /><path
                 d="m 808.01,1885.02 0,-17"
                 id="path146"
                 style="fill:none;stroke:#000000;stroke-width:7;stroke-linecap:round;stroke-linejoin:round;stroke-miterlimit:10;stroke-opacity:1;stroke-dasharray:none" /><path
                 d="m 1014.03,1885.02 0,-17"
                 id="path148"
                 style="fill:none;stroke:#000000;stroke-width:7;stroke-linecap:round;stroke-linejoin:round;stroke-miterlimit:10;stroke-opacity:1;stroke-dasharray:none" /><path
                 d="m 1219.98,1885.02 0,-17"
                 id="path150"
                 style="fill:none;stroke:#000000;stroke-width:7;stroke-linecap:round;stroke-linejoin:round;stroke-miterlimit:10;stroke-opacity:1;stroke-dasharray:none" /><path
                 d="m 1425,1902.01 0,-33.99"
                 id="path152"
                 style="fill:none;stroke:#000000;stroke-width:7;stroke-linecap:round;stroke-linejoin:round;stroke-miterlimit:10;stroke-opacity:1;stroke-dasharray:none" /><path
                 d="m 1631.02,1885.02 0,-17"
                 id="path154"
                 style="fill:none;stroke:#000000;stroke-width:7;stroke-linecap:round;stroke-linejoin:round;stroke-miterlimit:10;stroke-opacity:1;stroke-dasharray:none" /><path
                 d="m 1836.97,1885.02 0,-17"
                 id="path156"
                 style="fill:none;stroke:#000000;stroke-width:7;stroke-linecap:round;stroke-linejoin:round;stroke-miterlimit:10;stroke-opacity:1;stroke-dasharray:none" /><path
                 d="m 2041.99,1885.02 0,-17"
                 id="path158"
                 style="fill:none;stroke:#000000;stroke-width:7;stroke-linecap:round;stroke-linejoin:round;stroke-miterlimit:10;stroke-opacity:1;stroke-dasharray:none" /><path
                 d="m 2248.01,1902.01 0,-33.99"
                 id="path160"
                 style="fill:none;stroke:#000000;stroke-width:7;stroke-linecap:round;stroke-linejoin:round;stroke-miterlimit:10;stroke-opacity:1;stroke-dasharray:none" /><path
                 d="m 2454.03,1885.02 0,-17"
                 id="path162"
                 style="fill:none;stroke:#000000;stroke-width:7;stroke-linecap:round;stroke-linejoin:round;stroke-miterlimit:10;stroke-opacity:1;stroke-dasharray:none" /><path
                 d="m 2658.98,1885.02 0,-17"
                 id="path164"
                 style="fill:none;stroke:#000000;stroke-width:7;stroke-linecap:round;stroke-linejoin:round;stroke-miterlimit:10;stroke-opacity:1;stroke-dasharray:none" /><path
                 d="m 2865,1885.02 0,-17"
                 id="path166"
                 style="fill:none;stroke:#000000;stroke-width:7;stroke-linecap:round;stroke-linejoin:round;stroke-miterlimit:10;stroke-opacity:1;stroke-dasharray:none" /><path
                 d="m 3071.02,1902.01 0,-33.99"
                 id="path168"
                 style="fill:none;stroke:#000000;stroke-width:7;stroke-linecap:round;stroke-linejoin:round;stroke-miterlimit:10;stroke-opacity:1;stroke-dasharray:none" /><path
                 d="m 602.99,1868.02 2468.03,0"
                 id="path170"
                 style="fill:none;stroke:#000000;stroke-width:7;stroke-linecap:round;stroke-linejoin:round;stroke-miterlimit:10;stroke-opacity:1;stroke-dasharray:none" /><path
                 d="m 569,1868.02 33.99,0"
                 id="path172"
                 style="fill:none;stroke:#000000;stroke-width:7;stroke-linecap:round;stroke-linejoin:round;stroke-miterlimit:10;stroke-opacity:1;stroke-dasharray:none" /><path
                 d="m 586,1741.99 16.99,0"
                 id="path174"
                 style="fill:none;stroke:#000000;stroke-width:7;stroke-linecap:round;stroke-linejoin:round;stroke-miterlimit:10;stroke-opacity:1;stroke-dasharray:none" /><path
                 d="m 586,1616.02 16.99,0"
                 id="path176"
                 style="fill:none;stroke:#000000;stroke-width:7;stroke-linecap:round;stroke-linejoin:round;stroke-miterlimit:10;stroke-opacity:1;stroke-dasharray:none" /><path
                 d="m 586,1489.99 16.99,0"
                 id="path178"
                 style="fill:none;stroke:#000000;stroke-width:7;stroke-linecap:round;stroke-linejoin:round;stroke-miterlimit:10;stroke-opacity:1;stroke-dasharray:none" /><path
                 d="m 569,1364.02 33.99,0"
                 id="path180"
                 style="fill:none;stroke:#000000;stroke-width:7;stroke-linecap:round;stroke-linejoin:round;stroke-miterlimit:10;stroke-opacity:1;stroke-dasharray:none" /><path
                 d="m 586,1237.99 16.99,0"
                 id="path182"
                 style="fill:none;stroke:#000000;stroke-width:7;stroke-linecap:round;stroke-linejoin:round;stroke-miterlimit:10;stroke-opacity:1;stroke-dasharray:none" /><path
                 d="m 586,1112.02 16.99,0"
                 id="path184"
                 style="fill:none;stroke:#000000;stroke-width:7;stroke-linecap:round;stroke-linejoin:round;stroke-miterlimit:10;stroke-opacity:1;stroke-dasharray:none" /><path
                 d="m 586,985.99 16.99,0"
                 id="path186"
                 style="fill:none;stroke:#000000;stroke-width:7;stroke-linecap:round;stroke-linejoin:round;stroke-miterlimit:10;stroke-opacity:1;stroke-dasharray:none" /><path
                 d="m 569,860.02 33.99,0"
                 id="path188"
                 style="fill:none;stroke:#000000;stroke-width:7;stroke-linecap:round;stroke-linejoin:round;stroke-miterlimit:10;stroke-opacity:1;stroke-dasharray:none" /><path
                 d="m 586,733.99 16.99,0"
                 id="path190"
                 style="fill:none;stroke:#000000;stroke-width:7;stroke-linecap:round;stroke-linejoin:round;stroke-miterlimit:10;stroke-opacity:1;stroke-dasharray:none" /><path
                 d="m 586,608.02 16.99,0"
                 id="path192"
                 style="fill:none;stroke:#000000;stroke-width:7;stroke-linecap:round;stroke-linejoin:round;stroke-miterlimit:10;stroke-opacity:1;stroke-dasharray:none" /><path
                 d="m 586,481.99 16.99,0"
                 id="path194"
                 style="fill:none;stroke:#000000;stroke-width:7;stroke-linecap:round;stroke-linejoin:round;stroke-miterlimit:10;stroke-opacity:1;stroke-dasharray:none" /><path
                 d="m 569,356.02 33.99,0"
                 id="path196"
                 style="fill:none;stroke:#000000;stroke-width:7;stroke-linecap:round;stroke-linejoin:round;stroke-miterlimit:10;stroke-opacity:1;stroke-dasharray:none" /><path
                 d="m 586,229.99 16.99,0"
                 id="path198"
                 style="fill:none;stroke:#000000;stroke-width:7;stroke-linecap:round;stroke-linejoin:round;stroke-miterlimit:10;stroke-opacity:1;stroke-dasharray:none" /><path
                 d="m 586,104.02 16.99,0"
                 id="path200"
                 style="fill:none;stroke:#000000;stroke-width:7;stroke-linecap:round;stroke-linejoin:round;stroke-miterlimit:10;stroke-opacity:1;stroke-dasharray:none" /><path
                 d="m 602.99,1868.02 0,-1764"
                 id="path202"
                 style="fill:none;stroke:#000000;stroke-width:7;stroke-linecap:round;stroke-linejoin:round;stroke-miterlimit:10;stroke-opacity:1;stroke-dasharray:none" /></g><g
               id="g204"><g
                 id="g206" /><g
                 clip-path="url(#clipPath210)"
                 id="g208"><g
                   id="g214" /><g
                   transform="matrix(1.000219,0,0,-1.000246,0,2400.6047)"
                   id="g216"><path
                     d="m 931.98,1383.01 16,-58.98 16,-48.05 16.99,-47.99 16,-56.99 17.06,-56.98 15.99,-45.99 17,-45.05 16,-40.99 16.99,-31.99 16,-34 17,-43.98 15.99,-45.99 16,-54.05 17,-52.99 15.99,-45.99 17,-24.99 15.99,-33.99 17,-19 16,-17 16.99,-14.99 16,-16.06 17.06,-31.99 16,-34.99 15.99,-43.99 17,-48.99 15.99,-48.99 17,-25.99 16,-21.06 16.99,-4 16,-5 17,-10.99 15.99,-3 17,-10 16,-17 15.99,-27.99 17,-28.99 16,2 16.99,-3 16.06,2 17,3 15.99,10.99 17,4 16,6 16.99,3 16,-9 16,-16.99 16.99,-14 16,4 16.99,0 16,7 17,17.99 15.99,13 17,14 16,13.99 16.99,12 16,10 16.06,14.99 16.99,17 16,17.06 17,19.99 15.99,16 17,3 16,20.99 16.99,20 16,16.99 16,15 16.99,17 16,20.99 16.99,21 16,17.99 17,20 15.99,21.99 17,23.06 16.06,22.99 17,20 15.99,21.99 16,22 16.99,22.99 16,21 17,20.99 15.99,21.99 17,22 16,21.99 16.99,21 16,21.06 17,20.99 15.99,22 16,20.99 17,21 15.99,20.99 17.06,20.99 16,21 16.99,21.99 16,21 17,19.99 15.99,21 17,21.06 16,18.99 15.99,21 17,17.99 15.99,19 17,19.99 16,20 16.99,18.99 16,20 17,19.99 15.99,19 17,16.99 16.06,20 15.99,19.06 17,18.99 16,19 16.99,17.99 16,18 17,18.99 15.99,18 17,17 16,17.99 16.99,17 16,14.99 16,16 16.99,13 16,12.99 16.99,12 16,11.06 17.06,12 16,12.99 16.99,12 16,12 17,12.99"
                     id="path218"
                     style="fill:none;stroke:#000000;stroke-width:18;stroke-linecap:round;stroke-linejoin:round;stroke-miterlimit:10;stroke-opacity:1;stroke-dasharray:none" /></g></g></g><g
               id="g220" /><g
               id="g222"><g
                 id="g224" /><g
                 transform="matrix(1.000219,0,0,-1.000246,0,2400.6047)"
                 id="g226"><g
                   transform="matrix(0,-1,-1,0,226,1997)"
                   id="g228"><text
                     transform="scale(1,-1)"
                     id="text230"><tspan
                       x="0 192 320 435 499 652 716 780 831 946 997 1125 1253 1368 1483 1547 1624 1829"
                       y="0"
                       id="tspan232"
                       style="font-size:232px;font-variant:normal;font-weight:normal;writing-mode:lr-tb;fill:#000000;fill-opacity:1;fill-rule:nonzero;stroke:none;font-family:Arial;-inkscape-font-specification:ArialMT">Max Efficiency (%)</tspan></text>
</g></g></g><g
               id="g234" /><g
               id="g236"><g
                 id="g238" /><g
                 id="g240"><g
                   id="g242" /><g
                   transform="matrix(1.000219,0,0,-1.000246,0,2400.6047)"
                   id="g244"><g
                     transform="matrix(1,0,0,-1,1127,2292)"
                     id="g246"><text
                       transform="scale(1,-1)"
                       id="text248"><tspan
                         x="0 153 281 409 537 665 793 921 985 1062 1190 1343"
                         y="0"
                         id="tspan250"
                         style="font-size:232px;font-variant:normal;font-weight:normal;writing-mode:lr-tb;fill:#000000;fill-opacity:1;fill-rule:nonzero;stroke:none;font-family:Arial;-inkscape-font-specification:ArialMT">Bandgap (eV)</tspan></text>
</g></g></g><g
                 id="g252" /></g><g
               id="g254" /></g><g
             id="g256" /></g></g></g></g></svg>